<svg xmlns="http://www.w3.org/2000/svg">    

    <symbol id="out" viewBox="0 0 16 16">
        <path fill-rule="evenodd" d="M11.992 8.994V6.996H7.995v-2h3.997V2.999l3.998 2.998-3.998 2.998zm-1.998 2.998H5.996V2.998L2 1h7.995v2.998h1V1c0-.55-.45-.999-1-.999H.999A1.001 1.001 0 0 0 0 1v11.372c0 .39.22.73.55.91L5.996 16v-3.008h3.998c.55 0 1-.45 1-1V7.996h-1v3.998z"/>
	</symbol>

	<symbol id="logout" viewBox="0 0 32 32">
        <defs>
		<!-- <style>.cls-1{fill:none;stroke:#000;stroke-linecap:round;stroke-linejoin:round;stroke-width:2px;}</style> -->
		</defs>
		<g  stroke-width="2px"><line class="cls-1" x1="15.92" x2="28.92" y1="16" y2="16"/><path d="M23.93,25v3h-16V4h16V7h2V3a1,1,0,0,0-1-1h-18a1,1,0,0,0-1,1V29a1,1,0,0,0,1,1h18a1,1,0,0,0,1-1V25Z"/><line class="cls-1" x1="28.92" x2="24.92" y1="16" y2="20"/><line class="cls-1" x1="28.92" x2="24.92" y1="16" y2="12"/><line class="cls-1" x1="24.92" x2="24.92" y1="8.09" y2="6.09"/><line class="cls-1" x1="24.92" x2="24.92" y1="26" y2="24"/></g>
</symbol>

</svg>

	



	
